<?xml version="1.0" encoding="UTF-8"?>
<svg id="Layer_2" data-name="Layer 2" xmlns="http://www.w3.org/2000/svg" viewBox="0 0 325.19 141.89">
  <defs>
    <style>
      .cls-1 {
        fill: #f2f2f2;
      }
    </style>
  </defs>
  <g id="Desktop">
    <g id="Home">
      <g>
        <path class="cls-1" d="m33.93,69.65c-1.34,1.34-3.12,2.52-5.32,3.52-2.21,1.01-4.55,1.75-7.04,2.23-2.49.48-5.01.65-7.55.5-2.54-.14-4.84-.69-6.9-1.65-2.06-.96-3.76-2.37-5.1-4.24C.68,68.14,0,65.72,0,62.75c-.1-3.83.84-8.17,2.8-13.01,1.96-4.84,4.67-9.7,8.12-14.59,3.45-4.89,7.55-9.61,12.29-14.16,4.74-4.55,9.87-8.48,15.38-11.79,5.51-3.31,11.28-5.8,17.32-7.47C61.96.05,68.05-.41,74.18.36c6.04.77,10.8,2.28,14.3,4.53,3.5,2.25,6.04,5.06,7.62,8.41,1.58,3.36,2.39,7.14,2.44,11.36.05,4.22-.36,8.67-1.22,13.37,3.35-.57,6.18-.38,8.48.58,2.3.96,4.17,2.25,5.61,3.88-3.45.67-6.76,1.61-9.92,2.8-3.16,1.2-5.56,2.42-7.19,3.67-1.25,4.31-2.9,9.06-4.96,14.23-2.06,5.17-4.53,10.49-7.4,15.96-2.88,5.46-6.13,10.95-9.77,16.46-3.64,5.51-7.67,10.71-12.08,15.6-4.6,5.17-9.32,9.46-14.16,12.87-4.84,3.4-9.54,5.96-14.09,7.69-4.55,1.72-8.75,2.63-12.58,2.73-3.83.09-7-.62-9.49-2.16-2.49-1.53-4.15-3.83-4.96-6.9-.82-3.07-.5-7.04.93-11.93,1.34-3.93,3.47-8.29,6.4-13.08,2.92-4.79,6.92-10.21,12-16.24,2.97-3.54,6.42-7.09,10.35-10.64,3.93-3.54,8.19-7.02,12.79-10.42,4.6-3.4,9.49-6.66,14.66-9.77,5.18-3.11,10.54-5.97,16.1-8.55.29-.86.72-2.47,1.29-4.82.57-2.35,1.12-4.98,1.65-7.91.53-2.92.88-5.99,1.08-9.2.19-3.21-.03-6.11-.65-8.7-.62-2.59-1.72-4.72-3.31-6.4-1.58-1.68-3.86-2.52-6.83-2.52-3.26.1-7,1.17-11.21,3.23-4.22,2.06-8.51,4.79-12.87,8.19-4.36,3.4-8.55,7.24-12.58,11.5-4.02,4.27-7.47,8.62-10.35,13.08s-4.98,8.82-6.33,13.08c-1.34,4.27-1.44,8.07-.29,11.43.38,1.34,1.1,2.44,2.16,3.31,1.05.86,2.35,1.49,3.88,1.87,1.53.38,3.19.48,4.96.29,1.77-.19,3.52-.72,5.25-1.58Zm39.53-12.07c-3.93,2.3-7.93,5.01-12,8.12-4.08,3.12-8.05,6.45-11.93,9.99-3.88,3.55-7.6,7.24-11.14,11.07-3.55,3.83-6.76,7.52-9.63,11.07-5.75,7.19-9.58,13.2-11.5,18.04-1.92,4.84-2.06,7.81-.43,8.91,1.63,1.1,4.98-.05,10.06-3.45,5.08-3.4,11.74-9.7,19.98-18.9,3.45-3.83,6.54-7.76,9.27-11.79s5.15-7.98,7.26-11.86c2.11-3.88,3.98-7.62,5.61-11.21,1.63-3.59,3.11-6.92,4.46-9.99Z"/>
        <path class="cls-1" d="m151.08,69.93c.29-.48.74-.69,1.37-.65.62.05,1.25.24,1.87.57.62.34,1.15.74,1.58,1.22.43.48.6.86.5,1.15-.67,1.53-1.56,3.55-2.66,6.04-1.1,2.49-2.4,5.17-3.88,8.05-1.49,2.88-3.07,5.73-4.74,8.55-1.68,2.83-3.43,5.3-5.25,7.4-1.82,2.11-3.64,3.72-5.46,4.81-1.82,1.1-3.59,1.27-5.32.5-3.07-1.44-5.39-3.11-6.97-5.03-1.58-1.92-2.18-4.69-1.8-8.34-1.72,2.59-3.36,4.98-4.89,7.19-1.54,2.21-3.79,4.84-6.76,7.91-1.06,1.15-2.54,1.82-4.46,2.01-1.92.19-3.81.02-5.68-.5-1.87-.53-3.52-1.37-4.96-2.52-1.44-1.15-2.2-2.49-2.3-4.03-.09-1.72.1-3.93.58-6.61.48-2.68,1.13-5.58,1.94-8.7.82-3.11,1.78-6.25,2.88-9.42,1.1-3.16,2.21-6.11,3.31-8.84,1.1-2.73,2.13-5.03,3.09-6.9.96-1.87,1.77-3.09,2.44-3.67.67-.67,1.67-.93,3.02-.79,1.34.14,2.61.5,3.81,1.08,1.2.58,2.16,1.27,2.87,2.08.72.82.89,1.56.5,2.23-.77,1.34-1.82,3.62-3.16,6.83-1.34,3.21-2.68,6.66-4.03,10.35-1.34,3.69-2.54,7.24-3.59,10.64-1.06,3.4-1.63,5.92-1.72,7.55.48-.09,1.27-.81,2.37-2.16,1.1-1.34,2.39-3.14,3.88-5.39,1.48-2.25,3.09-4.86,4.82-7.83,1.72-2.97,3.52-6.11,5.39-9.42s3.69-6.68,5.46-10.13c1.77-3.45,3.42-6.85,4.96-10.21.57-1.24,1.6-1.87,3.09-1.87s2.95.34,4.38,1.01c1.44.67,2.61,1.56,3.52,2.66.91,1.1,1.17,2.08.79,2.95-1.06,2.3-2.25,5.3-3.59,8.98-1.34,3.69-2.57,7.52-3.67,11.5-1.1,3.98-1.99,7.74-2.66,11.28-.67,3.55-.86,6.23-.58,8.05,1.82-1.15,3.69-2.97,5.61-5.46,1.92-2.49,3.76-5.17,5.53-8.05,1.77-2.87,3.4-5.77,4.89-8.7,1.48-2.92,2.71-5.39,3.67-7.4Z"/>
        <path class="cls-1" d="m206.14,68.78c.29-.67.79-.96,1.51-.86.72.1,1.44.34,2.16.72.72.38,1.32.84,1.8,1.37.48.53.67.93.58,1.22-1.34,2.78-3,5.85-4.96,9.2-1.96,3.36-4.07,6.59-6.32,9.7-2.25,3.12-4.55,5.92-6.9,8.41-2.35,2.49-4.53,4.27-6.54,5.32-1.34.67-2.88.93-4.6.79-1.72-.14-3.4-.5-5.03-1.08-1.63-.57-3.07-1.34-4.31-2.3-1.25-.96-1.97-1.92-2.16-2.88-.38-1.63-.38-3.83,0-6.61.38-2.78.93-5.56,1.65-8.34.72-2.78,1.44-5.29,2.16-7.55.72-2.25,1.22-3.71,1.51-4.38-1.92,1.63-4.07,3.98-6.47,7.04-2.4,3.07-4.77,6.32-7.12,9.77-2.35,3.45-4.51,6.85-6.47,10.21-1.96,3.36-3.47,6.13-4.53,8.34-.48.86-1.44,1.32-2.88,1.37-1.44.05-2.88-.17-4.31-.65-1.44-.48-2.71-1.15-3.81-2.01-1.1-.86-1.51-1.72-1.22-2.59.57-2.3,1.44-5.34,2.59-9.13,1.15-3.78,2.49-7.91,4.02-12.36,1.54-4.46,3.26-9.03,5.18-13.73,1.92-4.69,4.03-9.06,6.32-13.08.67-1.34,1.75-2.01,3.23-2.01s2.95.34,4.38,1.01c1.44.67,2.61,1.53,3.52,2.59.91,1.06,1.22,1.97.93,2.73-.96,2.01-1.99,4.05-3.09,6.11-1.1,2.06-2.16,3.98-3.16,5.75-1.01,1.77-1.87,3.33-2.59,4.67-.72,1.34-1.13,2.25-1.22,2.73,1.53-2.2,3.18-4.41,4.96-6.61,1.77-2.2,3.54-4.26,5.32-6.18,1.77-1.92,3.57-3.64,5.39-5.17,1.82-1.53,3.59-2.83,5.32-3.88,1.15-.67,2.56-.86,4.24-.57,1.68.29,3.23.86,4.67,1.73,1.44.86,2.56,1.89,3.38,3.09.81,1.2.98,2.37.5,3.52-.77,1.92-1.77,4.29-3.02,7.12-1.25,2.83-2.44,5.8-3.59,8.91-1.15,3.12-2.16,6.11-3.02,8.98s-1.29,5.32-1.29,7.33c1.82-1.05,3.79-2.54,5.89-4.46,2.11-1.92,4.19-4.12,6.25-6.61,2.06-2.49,4.05-5.17,5.96-8.05,1.92-2.88,3.64-5.75,5.17-8.62Z"/>
        <path class="cls-1" d="m261.05,69.07c.96-.48,1.65-.41,2.08.22.43.62.58,1.46.43,2.52-.14,1.06-.53,2.23-1.15,3.52-.62,1.29-1.51,2.32-2.66,3.09-3.64,2.21-7.12,4.46-10.42,6.76-3.31,2.3-6.45,4.7-9.42,7.19-1.15.86-2.16,2.11-3.02,3.74-1.82,3.93-4.05,8.34-6.68,13.22-2.64,4.89-5.44,9.61-8.41,14.16-2.97,4.55-5.97,8.5-8.98,11.86-3.02,3.35-5.87,5.46-8.55,6.32-1.15.38-2.9.29-5.25-.29-2.35-.58-4.5-1.58-6.47-3.02-1.96-1.44-3.38-3.26-4.24-5.46-.86-2.21-.43-4.7,1.29-7.47,2.21-3.55,5.22-7.21,9.06-11,3.83-3.79,7.67-7.31,11.5-10.57,3.83-3.26,7.26-6.13,10.28-8.62,3.02-2.49,4.77-4.22,5.25-5.18,1.05-1.92,2.06-4.14,3.02-6.68.96-2.54,1.77-4.77,2.44-6.68-1.34,1.63-2.85,3.45-4.53,5.46-1.68,2.01-3.45,4.02-5.32,6.04-1.87,2.01-3.76,3.88-5.68,5.61-1.92,1.72-3.74,3.16-5.46,4.31-1.06.67-2.44.86-4.17.58-1.72-.29-3.38-.86-4.96-1.73-1.58-.86-2.9-1.94-3.95-3.23-1.05-1.29-1.44-2.61-1.15-3.95.67-3.45,1.87-7.07,3.59-10.85,1.73-3.78,3.76-7.43,6.11-10.92,2.35-3.5,4.86-6.73,7.55-9.7,2.68-2.97,5.37-5.41,8.05-7.33,1.72-1.24,3.31-1.96,4.74-2.16,1.44-.19,2.78-.07,4.03.36,1.24.43,2.47,1.08,3.67,1.94,1.2.86,2.42,1.77,3.67,2.73.38-.48.93-1.24,1.65-2.3.72-1.05,1.27-1.73,1.65-2.01.86-.67,1.94-.98,3.23-.93,1.29.05,2.54.34,3.74.86,1.2.53,2.18,1.2,2.95,2.01.77.82,1.1,1.65,1.01,2.52-.38,2.01-.91,4.19-1.58,6.54-.67,2.35-1.37,4.72-2.08,7.12-.72,2.4-1.44,4.7-2.16,6.9-.72,2.21-1.32,4.12-1.8,5.75,3.54-2.49,6.63-4.6,9.27-6.33,2.63-1.72,5.25-3.35,7.83-4.89Zm-64.54,63.25c3.16-2.3,6.35-5.51,9.56-9.63,3.21-4.12,6.01-8.19,8.41-12.22-1.73,1.72-3.62,3.64-5.68,5.75-2.06,2.11-4,4.19-5.82,6.25-1.82,2.06-3.33,3.97-4.53,5.75-1.2,1.77-1.84,3.14-1.94,4.1Zm33.92-67.85c.48-.77.86-1.65,1.15-2.66.29-1.01.41-1.84.36-2.52-.05-.67-.34-1.05-.86-1.15-.53-.09-1.42.38-2.66,1.44-1.92,1.63-3.81,3.57-5.68,5.82-1.87,2.25-3.62,4.58-5.25,6.97-1.63,2.4-3.07,4.7-4.31,6.9-1.25,2.21-2.16,4.12-2.73,5.75-.19.86,0,1.29.58,1.29s1.56-.57,2.95-1.73c1.39-1.15,2.97-2.73,4.74-4.74,1.77-2.01,3.69-4.33,5.75-6.97,2.06-2.63,4.05-5.44,5.97-8.41Z"/>
        <path class="cls-1" d="m267.66,124.99c-.38.09-.89.12-1.51.07-.62-.05-1.42-.12-2.37-.22-1.82,0-4.22-1.2-7.19-3.59-2.97-2.3-5.08-5.94-6.33-10.92-.09-.48-.17-1.01-.22-1.58-.05-.58-.07-1.15-.07-1.72-.19-3.54.12-7.71.93-12.51.81-4.79,2.18-10.21,4.1-16.24,1.82-6.04,3.98-12.1,6.47-18.18,2.49-6.08,5.27-12.19,8.34-18.33,3.07-6.04,6.01-11.14,8.84-15.31,2.83-4.17,5.49-7.4,7.98-9.7.77-.48,1.48-.72,2.16-.72.77,0,1.7.19,2.8.58,1.1.38,2.32,1.1,3.67,2.16l.86.43c2.59,1.53,3.98,3.07,4.17,4.6.09.48-.19,1.06-.86,1.73-5.08,4.6-10.01,10.92-14.81,18.97-4.7,8.15-8.67,16.63-11.93,25.44-3.45,8.82-5.89,17.35-7.33,25.59-1.15,5.85-1.63,11.02-1.44,15.52.09.77.22,1.75.36,2.95.14,1.2.36,2.61.65,4.24.77,3.26,3.26,4.93,7.47,5.03-1.34,1.15-2.92,1.72-4.74,1.72Z"/>
        <path class="cls-1" d="m320.41,66.77c.38-.38.88-.53,1.51-.43.62.1,1.22.34,1.8.72.58.38,1.01.89,1.29,1.51.29.62.24,1.27-.14,1.94-1.25,3.74-3,7.45-5.25,11.14-2.25,3.69-4.82,7.17-7.69,10.42-2.88,3.26-5.89,6.23-9.06,8.91-3.16,2.68-6.28,4.89-9.34,6.61-1.44.77-2.97,1.06-4.6.86-1.63-.19-3.26-.65-4.89-1.37-1.63-.72-3.12-1.56-4.46-2.51-1.34-.96-2.44-1.87-3.31-2.73-1.82-1.92-2.83-4.48-3.02-7.69-.19-3.21.17-6.68,1.08-10.42.91-3.74,2.28-7.62,4.1-11.64s3.86-7.81,6.11-11.36c2.25-3.54,4.62-6.66,7.12-9.34,2.49-2.68,4.84-4.65,7.04-5.89,1.34-.67,2.59-1.03,3.74-1.08,1.15-.05,2.35.14,3.59.57,1.24.43,2.52,1.06,3.81,1.87,1.29.82,2.75,1.7,4.38,2.66,2.3,1.44,3.35,3.26,3.16,5.46,0,1.06-.41,2.92-1.22,5.61-.82,2.68-1.96,5.49-3.45,8.41-1.49,2.92-3.31,5.66-5.46,8.19-2.16,2.54-4.58,4.24-7.26,5.1-1.92.48-3.59.62-5.03.43-1.44-.19-3.02-.67-4.74-1.44-.48.96-1.01,2.37-1.58,4.24s-1.01,3.76-1.29,5.68c-.29,1.92-.38,3.62-.29,5.1.09,1.49.67,2.32,1.72,2.52,1.53.29,3.71-.53,6.54-2.44,2.83-1.92,5.77-4.43,8.84-7.55,3.07-3.11,6.08-6.63,9.06-10.57,2.97-3.93,5.37-7.76,7.19-11.5Zm-14.38-10.64c-.96.67-2.18,1.94-3.67,3.81-1.49,1.87-2.92,3.86-4.31,5.97-1.39,2.11-2.59,4.07-3.59,5.89-1.01,1.82-1.51,2.97-1.51,3.45,1.72.29,3.33-.24,4.82-1.58,1.48-1.34,2.83-3.04,4.03-5.1,1.2-2.06,2.16-4.24,2.88-6.54.72-2.3,1.17-4.26,1.37-5.89Z"/>
      </g>
    </g>
  </g>
</svg>